<svg xmlns="http://www.w3.org/2000/svg" xmlns:xlink="http://www.w3.org/1999/xlink" width="500" zoomAndPan="magnify" viewBox="0 0 375 374.999991" height="500" preserveAspectRatio="xMidYMid meet" version="1.0"><defs><g/></defs><g fill="#000000" fill-opacity="1"><g transform="translate(1.042973, 253.935999)"><g><path d="M 74.5 0 L 37.859375 0 L 37.859375 -105.671875 L 4.734375 -105.671875 L 4.734375 -135.640625 L 107.53125 -135.640625 L 107.53125 -105.671875 L 74.5 -105.671875 Z M 74.5 0 "/></g></g></g><g fill="#fde047" fill-opacity="1"><g transform="translate(113.285153, 253.935999)"><g><path d="M 69.109375 -79.421875 L 127.65625 -79.421875 L 127.65625 -6.3125 C 111.757812 -0.863281 94.285156 1.859375 75.234375 1.859375 C 54.328125 1.859375 38.171875 -4.203125 26.765625 -16.328125 C 15.359375 -28.453125 9.65625 -45.738281 9.65625 -68.1875 C 9.65625 -90.082031 15.898438 -107.117188 28.390625 -119.296875 C 40.878906 -131.484375 58.382812 -137.578125 80.90625 -137.578125 C 89.4375 -137.578125 97.488281 -136.773438 105.0625 -135.171875 C 112.644531 -133.566406 119.25 -131.523438 124.875 -129.046875 L 113.28125 -100.28125 C 103.507812 -105.113281 92.773438 -107.53125 81.078125 -107.53125 C 70.378906 -107.53125 62.109375 -104.050781 56.265625 -97.09375 C 50.421875 -90.132812 47.5 -80.191406 47.5 -67.265625 C 47.5 -54.585938 50.140625 -44.921875 55.421875 -38.265625 C 60.710938 -31.617188 68.335938 -28.296875 78.296875 -28.296875 C 83.742188 -28.296875 88.753906 -28.820312 93.328125 -29.875 L 93.328125 -51.125 L 69.109375 -51.125 Z M 69.109375 -79.421875 "/></g></g></g><g fill="#2563eb" fill-opacity="1"><g transform="translate(253.921863, 253.935999)"><g><path d="M 113.09375 -92.5 C 113.09375 -77.34375 108.625 -65.632812 99.6875 -57.375 C 90.75 -49.125 78.054688 -45 61.609375 -45 L 51.296875 -45 L 51.296875 0 L 14.65625 0 L 14.65625 -135.640625 L 61.609375 -135.640625 C 78.734375 -135.640625 91.59375 -131.894531 100.1875 -124.40625 C 108.789062 -116.925781 113.09375 -106.289062 113.09375 -92.5 Z M 51.296875 -74.875 L 57.984375 -74.875 C 63.484375 -74.875 67.859375 -76.414062 71.109375 -79.5 C 74.359375 -82.59375 75.984375 -86.863281 75.984375 -92.3125 C 75.984375 -101.46875 70.910156 -106.046875 60.765625 -106.046875 L 51.296875 -106.046875 Z M 51.296875 -74.875 "/></g></g></g></svg>