<svg xmlns="http://www.w3.org/2000/svg" xmlns:xlink="http://www.w3.org/1999/xlink" width="500" zoomAndPan="magnify" viewBox="0 0 375 374.999991" height="500" preserveAspectRatio="xMidYMid meet" version="1.0"><defs><clipPath id="id1"><path d="M 112.5 112.5 L 262.5 112.5 L 262.5 262.5 L 112.5 262.5 Z M 112.5 112.5 " clip-rule="nonzero"/></clipPath></defs><g clip-path="url(#id1)"><path fill="#2563eb" d="M 187.5 112.5 C 146.085938 112.5 112.5 146.085938 112.5 187.5 C 112.5 228.914062 146.085938 262.5 187.5 262.5 C 228.914062 262.5 262.5 228.914062 262.5 187.5 C 262.5 146.085938 228.914062 112.5 187.5 112.5 Z M 187.5 112.5 " fill-opacity="1" fill-rule="nonzero"/></g><path fill="#ffffff" d="M 209.234375 194.269531 C 208.390625 192.1875 207.148438 190.371094 205.488281 188.769531 C 203.824219 187.199219 201.738281 185.929688 199.230469 184.929688 C 202.191406 183.480469 204.398438 181.636719 205.878906 179.339844 C 207.359375 177.070312 208.117188 174.472656 208.117188 171.597656 C 208.117188 169.332031 207.695312 167.1875 206.847656 165.160156 C 206 163.136719 204.671875 161.320312 202.917969 159.71875 C 201.132812 158.117188 198.925781 156.847656 196.265625 155.941406 C 193.605469 155.035156 190.523438 154.578125 187.015625 154.578125 C 182.84375 154.578125 179.21875 155.367188 176.101562 156.9375 C 172.988281 158.507812 170.632812 160.59375 169.03125 163.195312 C 167.425781 165.796875 166.609375 168.574219 166.609375 171.539062 C 166.609375 177.644531 169.632812 182.117188 175.679688 184.960938 C 168.183594 187.921875 164.433594 193.363281 164.433594 201.316406 C 164.433594 205.035156 165.3125 208.390625 167.09375 211.382812 C 168.878906 214.375 171.476562 216.730469 174.984375 218.457031 C 178.460938 220.179688 182.664062 221.023438 187.558594 221.023438 C 192.277344 221.023438 196.386719 220.179688 199.863281 218.457031 C 203.339844 216.730469 206 214.375 207.785156 211.351562 C 209.597656 208.328125 210.472656 204.941406 210.472656 201.222656 C 210.503906 198.65625 210.082031 196.328125 209.234375 194.269531 M 180.578125 165.613281 C 182.269531 163.890625 184.507812 163.015625 187.289062 163.015625 C 189.132812 163.015625 190.734375 163.40625 192.15625 164.222656 C 193.578125 165.039062 194.664062 166.128906 195.449219 167.488281 C 196.238281 168.878906 196.628906 170.449219 196.628906 172.171875 C 196.628906 173.472656 196.417969 174.652344 195.964844 175.742188 C 195.511719 176.828125 194.90625 177.734375 194.089844 178.523438 C 193.273438 179.308594 192.304688 179.914062 191.15625 180.367188 C 190.007812 180.820312 188.769531 181.03125 187.378906 181.03125 C 184.628906 181.03125 182.390625 180.183594 180.636719 178.523438 C 178.882812 176.859375 178.039062 174.773438 178.039062 172.265625 C 178.039062 169.574219 178.882812 167.335938 180.578125 165.613281 M 196.960938 206.9375 C 196.023438 208.722656 194.726562 210.082031 193.0625 211.050781 C 191.398438 212.015625 189.554688 212.5 187.46875 212.5 C 185.445312 212.5 183.601562 212.015625 181.9375 211.050781 C 180.273438 210.082031 178.976562 208.722656 178.007812 206.96875 C 177.039062 205.214844 176.558594 203.1875 176.558594 200.890625 C 176.558594 197.292969 177.585938 194.484375 179.609375 192.488281 C 181.636719 190.492188 184.175781 189.464844 187.167969 189.464844 C 189.285156 189.464844 191.21875 189.917969 192.910156 190.824219 C 194.632812 191.730469 195.964844 193.0625 196.902344 194.753906 C 197.839844 196.476562 198.320312 198.472656 198.320312 200.769531 C 198.320312 203.066406 197.898438 205.183594 196.960938 206.9375 " fill-opacity="1" fill-rule="nonzero"/></svg>