<svg xmlns="http://www.w3.org/2000/svg" xmlns:xlink="http://www.w3.org/1999/xlink" width="500" zoomAndPan="magnify" viewBox="0 0 375 374.999991" height="500" preserveAspectRatio="xMidYMid meet" version="1.0"><defs><g/></defs><g fill="#000000" fill-opacity="1"><g transform="translate(0.0586002, 250.192772)"><g><path d="M 74.484375 0 L 37.84375 0 L 37.84375 -105.65625 L 4.734375 -105.65625 L 4.734375 -135.625 L 107.515625 -135.625 L 107.515625 -105.65625 L 74.484375 -105.65625 Z M 74.484375 0 "/></g></g></g><g fill="#2563eb" fill-opacity="1"><g transform="translate(112.269377, 250.192772)"><g><path d="M 69.109375 -79.40625 L 127.640625 -79.40625 L 127.640625 -6.3125 C 111.753906 -0.863281 94.285156 1.859375 75.234375 1.859375 C 54.328125 1.859375 38.164062 -4.203125 26.75 -16.328125 C 15.34375 -28.453125 9.640625 -45.738281 9.640625 -68.1875 C 9.640625 -90.070312 15.882812 -107.109375 28.375 -119.296875 C 40.875 -131.484375 58.378906 -137.578125 80.890625 -137.578125 C 89.421875 -137.578125 97.472656 -136.769531 105.046875 -135.15625 C 112.628906 -133.550781 119.234375 -131.507812 124.859375 -129.03125 L 113.265625 -100.28125 C 103.492188 -105.101562 92.765625 -107.515625 81.078125 -107.515625 C 70.378906 -107.515625 62.109375 -104.035156 56.265625 -97.078125 C 50.421875 -90.117188 47.5 -80.175781 47.5 -67.25 C 47.5 -54.570312 50.140625 -44.910156 55.421875 -38.265625 C 60.710938 -31.617188 68.335938 -28.296875 78.296875 -28.296875 C 83.734375 -28.296875 88.742188 -28.820312 93.328125 -29.875 L 93.328125 -51.109375 L 69.109375 -51.109375 Z M 69.109375 -79.40625 "/></g></g></g><g fill="#fde047" fill-opacity="1"><g transform="translate(252.840475, 250.192772)"><g><path d="M 113.078125 -92.484375 C 113.078125 -77.335938 108.609375 -65.632812 99.671875 -57.375 C 90.734375 -49.113281 78.039062 -44.984375 61.59375 -44.984375 L 51.296875 -44.984375 L 51.296875 0 L 14.65625 0 L 14.65625 -135.625 L 61.59375 -135.625 C 78.726562 -135.625 91.59375 -131.878906 100.1875 -124.390625 C 108.78125 -116.910156 113.078125 -106.273438 113.078125 -92.484375 Z M 51.296875 -74.859375 L 57.984375 -74.859375 C 63.484375 -74.859375 67.851562 -76.40625 71.09375 -79.5 C 74.34375 -82.59375 75.96875 -86.859375 75.96875 -92.296875 C 75.96875 -101.453125 70.898438 -106.03125 60.765625 -106.03125 L 51.296875 -106.03125 Z M 51.296875 -74.859375 "/></g></g></g></svg>